<svg width="96" height="16" viewBox="0 0 96 16" fill="none" xmlns="http://www.w3.org/2000/svg">
<g clip-path="url(#clip0_121_55948)">
<path d="M14.925 5.975L10.4 5.275L8.34996 0.975C8.19996 0.675 7.79996 0.675 7.64996 0.975L5.59996 5.3L1.09996 5.975C0.77496 6.025 0.64996 6.45 0.89996 6.675L4.17496 10.05L3.39996 14.775C3.34996 15.1 3.67496 15.375 3.97496 15.175L8.04996 12.95L12.1 15.175C12.375 15.325 12.725 15.075 12.65 14.775L11.875 10.05L15.15 6.675C15.35 6.45 15.25 6.025 14.925 5.975Z" fill="#FFA645"/>
</g>
<g clip-path="url(#clip1_121_55948)">
<path d="M34.925 5.975L30.4 5.275L28.35 0.975C28.2 0.675 27.8 0.675 27.65 0.975L25.6 5.3L21.1 5.975C20.775 6.025 20.65 6.45 20.9 6.675L24.175 10.05L23.4 14.775C23.35 15.1 23.675 15.375 23.975 15.175L28.05 12.95L32.1 15.175C32.375 15.325 32.725 15.075 32.65 14.775L31.875 10.05L35.15 6.675C35.35 6.45 35.25 6.025 34.925 5.975Z" fill="#FFA645"/>
</g>
<g clip-path="url(#clip2_121_55948)">
<path d="M54.925 5.975L50.4 5.275L48.35 0.975C48.2 0.675 47.8 0.675 47.65 0.975L45.6 5.3L41.1 5.975C40.775 6.025 40.65 6.45 40.9 6.675L44.175 10.05L43.4 14.775C43.35 15.1 43.675 15.375 43.975 15.175L48.05 12.95L52.1 15.175C52.375 15.325 52.725 15.075 52.65 14.775L51.875 10.05L55.15 6.675C55.35 6.45 55.25 6.025 54.925 5.975Z" fill="#FFA645"/>
</g>
<g clip-path="url(#clip3_121_55948)">
<path d="M74.925 5.975L70.4 5.275L68.35 0.975C68.2 0.675 67.8 0.675 67.65 0.975L65.6 5.3L61.1 5.975C60.775 6.025 60.65 6.45 60.9 6.675L64.175 10.05L63.4 14.775C63.35 15.1 63.675 15.375 63.975 15.175L68.05 12.95L72.1 15.175C72.375 15.325 72.725 15.075 72.65 14.775L71.875 10.05L75.15 6.675C75.35 6.45 75.25 6.025 74.925 5.975Z" fill="#FFA645"/>
</g>
<g clip-path="url(#clip4_121_55948)">
<path d="M83.875 15.6752C83.675 15.6752 83.475 15.6252 83.3 15.5002C82.975 15.2752 82.8 14.8752 82.875 14.4752L83.55 10.2252L80.625 7.2002C80.35 6.9252 80.25 6.5002 80.375 6.1252C80.5 5.7502 80.8 5.5002 81.175 5.4252L85.25 4.7752L87.075 0.900195C87.25 0.550195 87.6 0.325195 87.975 0.325195C88.375 0.325195 88.7 0.550195 88.875 0.900195L90.75 4.7502L94.825 5.4002C95.2 5.4502 95.5 5.7252 95.625 6.1002C95.75 6.4752 95.65 6.9002 95.375 7.1752L92.425 10.2002L93.125 14.4752C93.2 14.8752 93.025 15.2752 92.7 15.5002C92.4 15.7252 92 15.7502 91.65 15.5752L88 13.5752L84.35 15.5752C84.2 15.6502 84.05 15.6752 83.875 15.6752ZM81.25 6.6002L84.275 9.7002C84.425 9.8502 84.5 10.0752 84.45 10.3002L83.75 14.6252C83.725 14.7252 83.8 14.7752 83.825 14.8002C83.875 14.8502 83.925 14.8252 83.95 14.8002L87.7 12.7502C87.9 12.6502 88.125 12.6502 88.325 12.7502L92.075 14.7752C92.1 14.7752 92.125 14.8002 92.2 14.7752C92.225 14.7502 92.275 14.7002 92.275 14.6002L91.575 10.2502C91.55 10.0252 91.6 9.8252 91.75 9.6502L94.75 6.5502C94.825 6.4752 94.8 6.4002 94.8 6.3502C94.8 6.3252 94.75 6.2502 94.7 6.2502L90.5 5.6002C90.275 5.5752 90.1 5.4252 90 5.2252L88.125 1.2752C88.1 1.2002 88.05 1.2002 88 1.2002C87.975 1.2002 87.925 1.2252 87.875 1.2752L86 5.2502C85.9 5.4502 85.725 5.6002 85.5 5.6252L81.325 6.3002C81.25 6.3002 81.225 6.3752 81.225 6.4002C81.2 6.4252 81.175 6.5252 81.25 6.6002Z" fill="#FFA645"/>
</g>
<defs>
<clipPath id="clip0_121_55948">
<rect width="16" height="16" fill="white"/>
</clipPath>
<clipPath id="clip1_121_55948">
<rect width="16" height="16" fill="white" transform="translate(20)"/>
</clipPath>
<clipPath id="clip2_121_55948">
<rect width="16" height="16" fill="white" transform="translate(40)"/>
</clipPath>
<clipPath id="clip3_121_55948">
<rect width="16" height="16" fill="white" transform="translate(60)"/>
</clipPath>
<clipPath id="clip4_121_55948">
<rect width="16" height="16" fill="white" transform="translate(80)"/>
</clipPath>
</defs>
</svg>
