<svg id="visual" viewBox="0 0 900 675" width="900" height="675" xmlns="http://www.w3.org/2000/svg" xmlns:xlink="http://www.w3.org/1999/xlink" version="1.1"><rect x="0" y="0" width="900" height="675" fill="#221f5a"></rect><path d="M0 290L37.5 266.5C75 243 150 196 225 192.2C300 188.3 375 227.7 450 251C525 274.3 600 281.7 675 283.7C750 285.7 825 282.3 862.5 280.7L900 279L900 676L862.5 676C825 676 750 676 675 676C600 676 525 676 450 676C375 676 300 676 225 676C150 676 75 676 37.5 676L0 676Z" fill="#6865d4"></path><path d="M0 369L37.5 376.5C75 384 150 399 225 409.8C300 420.7 375 427.3 450 423.3C525 419.3 600 404.7 675 391.3C750 378 825 366 862.5 360L900 354L900 676L862.5 676C825 676 750 676 675 676C600 676 525 676 450 676C375 676 300 676 225 676C150 676 75 676 37.5 676L0 676Z" fill="#3d469c"></path><path d="M0 452L37.5 455C75 458 150 464 225 462.2C300 460.3 375 450.7 450 455.8C525 461 600 481 675 495.7C750 510.3 825 519.7 862.5 524.3L900 529L900 676L862.5 676C825 676 750 676 675 676C600 676 525 676 450 676C375 676 300 676 225 676C150 676 75 676 37.5 676L0 676Z" fill="#142866"></path></svg>