<svg xmlns="http://www.w3.org/2000/svg" version="1.1" xmlns:xlink="http://www.w3.org/1999/xlink" xmlns:svgjs="http://svgjs.com/svgjs" width="1440" height="560" preserveAspectRatio="none" viewBox="0 0 1440 560"><g mask="url(&quot;#SvgjsMask1006&quot;)" fill="none"><rect width="1440" height="560" x="0" y="0" fill="#0e2a47"></rect><path d="M923 377L922 184" stroke-width="8" stroke="url(#SvgjsLinearGradient1007)" stroke-linecap="round" class="Down"></path><path d="M754 415L753 220" stroke-width="8" stroke="url(#SvgjsLinearGradient1007)" stroke-linecap="round" class="Down"></path><path d="M1365 138L1364 394" stroke-width="8" stroke="url(#SvgjsLinearGradient1007)" stroke-linecap="round" class="Down"></path><path d="M319 427L318 253" stroke-width="8" stroke="url(#SvgjsLinearGradient1008)" stroke-linecap="round" class="Up"></path><path d="M1027 529L1026 948" stroke-width="10" stroke="url(#SvgjsLinearGradient1008)" stroke-linecap="round" class="Up"></path><path d="M1233 310L1232 100" stroke-width="6" stroke="url(#SvgjsLinearGradient1007)" stroke-linecap="round" class="Down"></path><path d="M48 116L47 -249" stroke-width="10" stroke="url(#SvgjsLinearGradient1007)" stroke-linecap="round" class="Down"></path><path d="M1031 525L1030 781" stroke-width="8" stroke="url(#SvgjsLinearGradient1008)" stroke-linecap="round" class="Up"></path><path d="M499 57L498 232" stroke-width="6" stroke="url(#SvgjsLinearGradient1008)" stroke-linecap="round" class="Up"></path><path d="M138 212L137 42" stroke-width="10" stroke="url(#SvgjsLinearGradient1008)" stroke-linecap="round" class="Up"></path><path d="M1295 275L1294 132" stroke-width="6" stroke="url(#SvgjsLinearGradient1007)" stroke-linecap="round" class="Down"></path><path d="M1337 94L1336 -66" stroke-width="8" stroke="url(#SvgjsLinearGradient1007)" stroke-linecap="round" class="Down"></path><path d="M1336 87L1335 -325" stroke-width="6" stroke="url(#SvgjsLinearGradient1008)" stroke-linecap="round" class="Up"></path><path d="M1388 11L1387 -386" stroke-width="6" stroke="url(#SvgjsLinearGradient1008)" stroke-linecap="round" class="Up"></path><path d="M1152 97L1151 385" stroke-width="8" stroke="url(#SvgjsLinearGradient1008)" stroke-linecap="round" class="Up"></path><path d="M612 488L611 748" stroke-width="10" stroke="url(#SvgjsLinearGradient1008)" stroke-linecap="round" class="Up"></path><path d="M1110 3L1109 -357" stroke-width="10" stroke="url(#SvgjsLinearGradient1008)" stroke-linecap="round" class="Up"></path><path d="M835 289L834 528" stroke-width="10" stroke="url(#SvgjsLinearGradient1008)" stroke-linecap="round" class="Up"></path><path d="M1243 539L1242 379" stroke-width="6" stroke="url(#SvgjsLinearGradient1007)" stroke-linecap="round" class="Down"></path><path d="M453 420L452 611" stroke-width="6" stroke="url(#SvgjsLinearGradient1007)" stroke-linecap="round" class="Down"></path><path d="M818 311L817 131" stroke-width="8" stroke="url(#SvgjsLinearGradient1007)" stroke-linecap="round" class="Down"></path><path d="M1417 280L1416 691" stroke-width="8" stroke="url(#SvgjsLinearGradient1008)" stroke-linecap="round" class="Up"></path><path d="M603 234L602 -147" stroke-width="10" stroke="url(#SvgjsLinearGradient1008)" stroke-linecap="round" class="Up"></path><path d="M872 295L871 -20" stroke-width="10" stroke="url(#SvgjsLinearGradient1007)" stroke-linecap="round" class="Down"></path><path d="M567 110L566 302" stroke-width="6" stroke="url(#SvgjsLinearGradient1008)" stroke-linecap="round" class="Up"></path><path d="M150 473L149 771" stroke-width="10" stroke="url(#SvgjsLinearGradient1008)" stroke-linecap="round" class="Up"></path><path d="M226 298L225 690" stroke-width="6" stroke="url(#SvgjsLinearGradient1007)" stroke-linecap="round" class="Down"></path><path d="M196 229L195 500" stroke-width="6" stroke="url(#SvgjsLinearGradient1007)" stroke-linecap="round" class="Down"></path><path d="M558 44L557 -313" stroke-width="8" stroke="url(#SvgjsLinearGradient1008)" stroke-linecap="round" class="Up"></path><path d="M1335 376L1334 14" stroke-width="8" stroke="url(#SvgjsLinearGradient1007)" stroke-linecap="round" class="Down"></path><path d="M178 445L177 194" stroke-width="8" stroke="url(#SvgjsLinearGradient1008)" stroke-linecap="round" class="Up"></path><path d="M12 99L11 387" stroke-width="6" stroke="url(#SvgjsLinearGradient1007)" stroke-linecap="round" class="Down"></path><path d="M550 362L549 554" stroke-width="10" stroke="url(#SvgjsLinearGradient1007)" stroke-linecap="round" class="Down"></path><path d="M864 118L863 465" stroke-width="10" stroke="url(#SvgjsLinearGradient1008)" stroke-linecap="round" class="Up"></path><path d="M900 544L899 830" stroke-width="6" stroke="url(#SvgjsLinearGradient1007)" stroke-linecap="round" class="Down"></path><path d="M1263 116L1262 269" stroke-width="10" stroke="url(#SvgjsLinearGradient1007)" stroke-linecap="round" class="Down"></path></g><defs><mask id="SvgjsMask1006"><rect width="1440" height="560" fill="#ffffff"></rect></mask><linearGradient x1="0%" y1="0%" x2="0%" y2="100%" id="SvgjsLinearGradient1007"><stop stop-color="rgba(28, 83, 142, 0)" offset="0"></stop><stop stop-color="#1c538e" offset="1"></stop></linearGradient><linearGradient x1="0%" y1="100%" x2="0%" y2="0%" id="SvgjsLinearGradient1008"><stop stop-color="rgba(28, 83, 142, 0)" offset="0"></stop><stop stop-color="#1c538e" offset="1"></stop></linearGradient></defs></svg>