<svg width="22" height="22" viewBox="0 0 22 22" fill="none" xmlns="http://www.w3.org/2000/svg">
<path fill-rule="evenodd" clip-rule="evenodd" d="M0.666992 11C0.666992 10.4477 1.11471 10 1.66699 10H20.3337C20.8859 10 21.3337 10.4477 21.3337 11C21.3337 11.5523 20.8859 12 20.3337 12H1.66699C1.11471 12 0.666992 11.5523 0.666992 11Z" fill="black"/>
<path fill-rule="evenodd" clip-rule="evenodd" d="M10.2929 0.959565C10.6834 0.569041 11.3166 0.569041 11.7071 0.959565L21.0404 10.2929C21.431 10.6834 21.431 11.3166 21.0404 11.7071L11.7071 21.0404C11.3166 21.431 10.6834 21.431 10.2929 21.0404C9.90237 20.6499 9.90237 20.0168 10.2929 19.6262L18.9191 11L10.2929 2.37378C9.90237 1.98325 9.90237 1.35009 10.2929 0.959565Z" fill="black"/>
</svg>
